<svg width="2000px" height="1893px"
 viewBox="0.00 0.00 413.47 391.18" xmlns="http://www.w3.org/2000/svg" xmlns:xlink="http://www.w3.org/1999/xlink">
<g id="graph0" class="graph" transform="scale(1.0 1.0) rotate(0) translate(4 387.18)">
<title>ContextMapGraph</title>
<polygon fill="white" stroke="none" points="-4,4 -4,-387.18 409.47,-387.18 409.47,4 -4,4"/>
<!-- ContentManagement -->
<g id="node1" class="node">
<title>ContentManagement</title>
<polygon fill="none" stroke="black" stroke-width="2" points="119.89,-240.89 111.24,-240.39 102.72,-239.77 94.36,-239.03 86.18,-238.18 78.23,-237.22 70.54,-236.15 63.13,-234.98 56.03,-233.7 49.28,-232.32 42.89,-230.85 36.89,-229.28 31.29,-227.64 26.12,-225.91 21.4,-224.1 17.12,-222.22 13.32,-220.28 9.98,-218.27 7.12,-216.21 4.74,-214.1 2.85,-211.94 1.43,-209.74 0.49,-207.51 0.01,-205.26 0,-202.98 0.44,-200.68 1.31,-198.38 2.6,-196.07 4.31,-193.77 6.4,-191.47 8.87,-189.19 11.69,-186.92 14.84,-184.69 18.31,-182.48 22.08,-180.31 26.11,-178.19 30.4,-176.11 34.92,-174.09 39.65,-172.13 44.57,-170.23 49.66,-168.4 54.9,-166.64 60.27,-164.97 65.77,-163.38 71.36,-161.87 77.04,-160.46 82.78,-159.14 88.59,-157.93 94.44,-156.81 100.32,-155.81 106.23,-154.91 112.15,-154.12 118.08,-153.45 124.01,-152.9 129.93,-152.46 135.84,-152.14 141.73,-151.95 147.61,-151.87 153.45,-151.92 159.26,-152.09 165.04,-152.38 170.79,-152.8 176.49,-153.33 182.14,-153.99 187.75,-154.77 193.3,-155.66 198.79,-156.66 204.22,-157.78 209.57,-159.01 214.84,-160.34 220.03,-161.78 225.11,-163.31 230.09,-164.94 234.95,-166.67 239.68,-168.47 244.26,-170.36 248.68,-172.32 252.94,-174.35 257,-176.45 260.86,-178.61 264.5,-180.82 267.9,-183.07 271.05,-185.36 273.92,-187.69 276.5,-190.05 278.78,-192.42 280.72,-194.81 282.33,-197.2 283.57,-199.59 284.44,-201.98 284.93,-204.34 285.01,-206.69 284.67,-209.01 283.91,-211.3 282.71,-213.54 281.08,-215.74 278.99,-217.88 276.46,-219.96 273.47,-221.97 270.04,-223.91 266.15,-225.78 261.83,-227.56 257.07,-229.25 251.89,-230.85 246.29,-232.36 240.31,-233.76 233.94,-235.06 227.22,-236.25 220.17,-237.33 212.8,-238.29 205.15,-239.14 197.24,-239.86 189.11,-240.47 180.78,-240.96 172.29,-241.32 163.67,-241.56 154.96,-241.67 146.19,-241.66 137.4,-241.52 128.62,-241.27 119.89,-240.89"/>
<text text-anchor="middle" x="144.68" y="-191.63" font-family="sans-serif" font-size="16.00">ContentManagement</text>
</g>
<!-- SocialFeatures -->
<g id="node2" class="node">
<title>SocialFeatures</title>
<polygon fill="none" stroke="black" stroke-width="2" points="331.75,-35.09 334.08,-37.85 336.12,-40.63 337.86,-43.42 339.31,-46.22 340.45,-49 341.28,-51.77 341.79,-54.51 341.97,-57.21 341.83,-59.85 341.36,-62.44 340.57,-64.96 339.44,-67.41 338,-69.77 336.23,-72.05 334.14,-74.23 331.75,-76.3 329.05,-78.28 326.06,-80.14 322.79,-81.88 319.24,-83.51 315.43,-85.02 311.37,-86.41 307.08,-87.67 302.57,-88.82 297.85,-89.84 292.95,-90.74 287.88,-91.51 282.66,-92.17 277.31,-92.71 271.84,-93.14 266.27,-93.45 260.63,-93.66 254.93,-93.75 249.19,-93.75 243.43,-93.64 237.67,-93.43 231.93,-93.13 226.23,-92.74 220.58,-92.27 215.01,-91.7 209.52,-91.06 204.14,-90.34 198.88,-89.54 193.76,-88.67 188.78,-87.73 183.97,-86.72 179.34,-85.65 174.89,-84.51 170.64,-83.3 166.6,-82.04 162.77,-80.71 159.17,-79.33 155.79,-77.89 152.66,-76.39 149.76,-74.83 147.12,-73.22 144.72,-71.56 142.57,-69.84 140.68,-68.07 139.05,-66.24 137.67,-64.37 136.55,-62.45 135.68,-60.48 135.07,-58.47 134.71,-56.41 134.6,-54.32 134.73,-52.18 135.12,-50.02 135.74,-47.82 136.6,-45.6 137.69,-43.36 139.02,-41.1 140.57,-38.83 142.33,-36.55 144.32,-34.28 146.51,-32.02 148.91,-29.77 151.51,-27.54 154.3,-25.34 157.28,-23.18 160.45,-21.07 163.79,-19.01 167.3,-17.01 170.98,-15.08 174.81,-13.24 178.79,-11.48 182.92,-9.82 187.18,-8.26 191.58,-6.82 196.09,-5.49 200.71,-4.29 205.44,-3.23 210.26,-2.31 215.16,-1.53 220.14,-0.91 225.18,-0.45 230.27,-0.14 235.41,0 240.58,-0.03 245.76,-0.22 250.95,-0.58 256.13,-1.12 261.29,-1.82 266.41,-2.69 271.48,-3.73 276.49,-4.92 281.43,-6.28 286.27,-7.78 291,-9.44 295.61,-11.23 300.08,-13.16 304.4,-15.22 308.55,-17.39 312.52,-19.67 316.3,-22.06 319.86,-24.53 323.2,-27.07 326.31,-29.69 329.16,-32.37 331.75,-35.09"/>
<text text-anchor="middle" x="234.68" y="-44.92" font-family="sans-serif" font-size="16.00">SocialFeatures</text>
</g>
<!-- ContentManagement&#45;&gt;SocialFeatures -->
<g id="edge1" class="edge">
<title>ContentManagement&#45;&gt;SocialFeatures</title>
<path fill="none" stroke="black" stroke-width="2" d="M171.44,-152.67C183.57,-133.18 197.82,-110.26 209.72,-91.13"/>
<text text-anchor="middle" x="222.38" y="-122.33" font-family="sans-serif" font-size="12.00">Partnership</text>
</g>
<!-- UserManagement -->
<g id="node3" class="node">
<title>UserManagement</title>
<polygon fill="none" stroke="black" stroke-width="2" points="223.1,-383.06 215.43,-382.81 207.84,-382.45 200.37,-381.96 193.03,-381.35 185.86,-380.62 178.89,-379.78 172.15,-378.82 165.65,-377.76 159.44,-376.58 153.52,-375.3 147.91,-373.92 142.65,-372.44 137.74,-370.87 133.19,-369.21 129.03,-367.46 125.26,-365.63 121.88,-363.73 118.92,-361.76 116.36,-359.72 114.21,-357.63 112.47,-355.48 111.13,-353.29 110.2,-351.05 109.67,-348.78 109.53,-346.48 109.77,-344.16 110.37,-341.82 111.33,-339.48 112.64,-337.13 114.27,-334.78 116.22,-332.44 118.47,-330.12 121,-327.82 123.79,-325.55 126.83,-323.31 130.11,-321.12 133.59,-318.97 137.28,-316.88 141.14,-314.84 145.18,-312.87 149.36,-310.97 153.67,-309.14 158.11,-307.4 162.65,-305.73 167.29,-304.16 172.01,-302.68 176.81,-301.3 181.67,-300.02 186.58,-298.84 191.54,-297.78 196.53,-296.82 201.56,-295.98 206.62,-295.25 211.69,-294.64 216.78,-294.16 221.89,-293.79 227,-293.54 232.12,-293.42 237.24,-293.42 242.36,-293.54 247.47,-293.79 252.58,-294.16 257.67,-294.64 262.75,-295.25 267.8,-295.98 272.83,-296.82 277.83,-297.78 282.79,-298.84 287.7,-300.02 292.56,-301.3 297.35,-302.68 302.07,-304.16 306.71,-305.73 311.26,-307.4 315.69,-309.14 320.01,-310.97 324.19,-312.87 328.22,-314.84 332.08,-316.88 335.77,-318.97 339.26,-321.12 342.53,-323.31 345.57,-325.55 348.37,-327.82 350.89,-330.12 353.14,-332.44 355.09,-334.78 356.72,-337.13 358.03,-339.48 358.99,-341.82 359.6,-344.16 359.83,-346.48 359.69,-348.78 359.16,-351.05 358.23,-353.29 356.9,-355.48 355.16,-357.63 353.01,-359.72 350.45,-361.76 347.48,-363.73 344.1,-365.63 340.33,-367.46 336.17,-369.21 331.62,-370.87 326.71,-372.44 321.45,-373.92 315.85,-375.3 309.93,-376.58 303.71,-377.76 297.22,-378.82 290.47,-379.78 283.5,-380.62 276.33,-381.35 269,-381.96 261.52,-382.45 253.93,-382.81 246.26,-383.06 238.55,-383.18 230.82,-383.18 223.1,-383.06"/>
<text text-anchor="middle" x="234.68" y="-333.23" font-family="sans-serif" font-size="16.00">UserManagement</text>
</g>
<!-- UserManagement&#45;&gt;ContentManagement -->
<g id="edge2" class="edge">
<title>UserManagement&#45;&gt;ContentManagement</title>
<path fill="none" stroke="black" stroke-width="2" d="M207.43,-295.04C196.57,-278.18 184.06,-258.78 173.08,-241.76"/>
<text text-anchor="middle" x="222.38" y="-264.02" font-family="sans-serif" font-size="12.00">Partnership</text>
</g>
<!-- UserManagement&#45;&gt;SocialFeatures -->
<g id="edge3" class="edge">
<title>UserManagement&#45;&gt;SocialFeatures</title>
<path fill="none" stroke="black" stroke-width="2" d="M269.87,-296.28C281.4,-280.31 292.76,-261.17 298.68,-241.67 310.3,-203.42 309.84,-190.11 298.68,-151.73 292.66,-131.04 280.97,-110.53 269.21,-93.48"/>
<text text-anchor="middle" x="356.35" y="-193.18" font-family="sans-serif" font-size="12.00">Customer/Supplier</text>
<polygon fill="white" stroke="none" points="263.09,-83.6 263.09,-103.35 275.34,-103.35 275.34,-83.6 263.09,-83.6"/>
<text text-anchor="start" x="265.09" y="-89.95" font-family="sans-serif" font-size="12.00">D</text>
<polygon fill="white" stroke="none" points="264.12,-286.41 264.12,-306.16 275.62,-306.16 275.62,-286.41 264.12,-286.41"/>
<text text-anchor="start" x="266.12" y="-292.76" font-family="sans-serif" font-size="12.00">U</text>
</g>
</g>
</svg>
